<?xml version="1.0" encoding="utf-8"?>
<!-- Generator: Adobe Illustrator 21.1.0, SVG Export Plug-In . SVG Version: 6.00 Build 0)  -->
<svg version="1.1" xmlns="http://www.w3.org/2000/svg" xmlns:xlink="http://www.w3.org/1999/xlink" x="0px" y="0px"
	 viewBox="0 0 156 156" style="enable-background:new 0 0 156 156;" xml:space="preserve">
<g id="Layer_1">
	<g>
		<circle style="fill:#2A3D49;" cx="78" cy="78" r="75.3"/>
	</g>
	<g>
		<path style="fill:#ECEBEB;" d="M78,153.3c37.5,0,66-24.3,73.3-57.8c-6.3,6.6-46.1-0.1-46.1-0.1l-36.5,25.9c1.2,0.9,2,18,0.1,31.6
			C73.2,153.7,73.3,153.3,78,153.3z"/>
	</g>
	<g>
		<path style="fill:#ECEBEB;" d="M38.5,66.4C24.2,74.7,11.7,75,11.7,75s2.6,14.2,21,14.2s21,2.8,21,2.8s16.5,22.6,15.1,26.6
			c-0.4,2.2,29.1,0.2,36.2-14s2.2-7.5,2.2-7.5S86.5,82.1,90,47.9C92.2,26.3,86.3,29,86.3,29s-4.5,18.9-10.2,19.7
			c-5.7,0.8-6.9-39.1-8.3-37C67.8,11.7,65.6,50.7,38.5,66.4z"/>
	</g>
	<g>
		<path style="fill:#D5D7D9;" d="M68.7,15.7L68.7,15.7c0,0-2.2,21.6,0,28c2.2,6.5,7.3,4.9,7.3,4.9C71.6,49.3,69.9,25.5,68.7,15.7z"
			/>
	</g>
	<g>
		<path style="fill:#D5D7D9;" d="M104.6,94.9c-5.4-5.3-17.4-20.2-14.6-47c0.7-6.4,0.6-10.6,0.2-13.4C89,28,86.6,29,86.3,29
			s0,13.8,0,19.8c0,8.9,2.2,21.8,3.7,27C93.5,87.7,102.4,95.7,104.6,94.9z"/>
	</g>
	<g>
		<path style="fill:#FFFFFF;" d="M49.1,59.8"/>
	</g>
	<g>
		<path style="fill:#D5D7D9;" d="M44.2,62.5c5.5-3.5,9.2-9.7,9.9-10.6c0.7-1,18.1,11.5,23,11.8C82.5,64,90,67,90,67
			s-29.4,6.3-34.7,4.8s-14-7.2-14-7.2L44.2,62.5z"/>
	</g>
	<g>
		<path style="fill:#41B883;" d="M44.2,61.3c5.5-3.5,9.2-9.7,9.9-10.6c0.7-1,18.1,11.5,23,11.8c5.5,0.4,15.3,3,15.3,3
			s-31.7,6.7-37.1,5.2s-14-7.2-14-7.2L44.2,61.3z"/>
	</g>
	<g>
		<circle cx="50.7" cy="59.1" r="1.2"/>
	</g>
	<g>
		<ellipse transform="matrix(0.6682 -0.744 0.744 0.6682 -27.1498 65.9012)" cx="60.3" cy="63.4" rx="2.8" ry="2.8"/>
	</g>
	<g>
		<circle style="fill:#FFFFFF;" cx="58.9" cy="62.9" r="0.6"/>
	</g>
	<g>
		<circle style="fill:#FFFFFF;" cx="50.4" cy="58.8" r="0.3"/>
	</g>
	<g>
		<path style="fill:#41B883;" d="M90.8,65.4c1.9-6.6,7.6-16.9,8-11.3S90.8,65.4,90.8,65.4z"/>
	</g>
	<g>
		<path style="fill:#41B883;" d="M96.9,70.3c-4.3,2.9-6.1-4.9-6.1-4.9S98.6,69.1,96.9,70.3z"/>
	</g>
	<g>
		<path style="fill:#D5D7D9;" d="M77.4,119.3c-1.3-2.3-22.1-35.4-26-34.5C32.7,89.2,13.8,80,13.8,80c0,0,0,0,0,0l2.2,2.9
			c3,3.3,8.2,6.4,16.7,6.4c18.4,0,21,2.8,21,2.8s16.5,22.6,15.1,26.6c-0.1,0.4,1.9,20.8,0,34.4l9.2,0.4
			C78,153.3,83.7,130,77.4,119.3z"/>
	</g>
	<g>
		<path d="M15,74.6c0,0-0.2,10.3-2.3,5.4c-2-4.9-2-4.9-2-4.9L15,74.6z"/>
	</g>
	<g>
		<polygon style="fill:#FFFFFF;" points="29,87.2 29,89.7 33.1,87.5 36,91.1 36,86.9 		"/>
	</g>
	<g style="opacity:0.7;">
		<path style="fill:#2A3D49;" d="M31.6,87.5c-3.1,0-6.3-0.3-7.4-0.4l0-0.5c5.5,0.5,13.3,0.6,13.5-0.7l0.5,0.1
			C38.1,87.2,35,87.5,31.6,87.5z"/>
	</g>
	<g>
		<path style="fill:#D5D7D9;" d="M67.2,115.7c0,0,19.8-2.8,38.5-22.9l4.8,3.5c-17.9,22.1-40.9,26.2-40.9,26.2
			C67.2,115.7,67.2,115.7,67.2,115.7z"/>
	</g>
	<g>
		<path style="fill:#2A3D49;" d="M78,154.3c-42.1,0-76.3-34.2-76.3-76.3S35.9,1.7,78,1.7s76.3,34.2,76.3,76.3S120.1,154.3,78,154.3z
			 M78,3.7C37,3.7,3.7,37,3.7,78S37,152.3,78,152.3S152.3,119,152.3,78S119,3.7,78,3.7z"/>
	</g>
	<g>
		<path style="fill:#FFFFFF;" d="M105.8,44.5c-0.1,0.2-0.2,0.3-0.4,0.4s-0.3,0-0.6-0.1c-0.1-0.1-0.2-0.1-0.4-0.2
			c-0.1-0.1-0.2-0.2-0.3-0.3c-0.2-0.2-0.4-0.4-0.5-0.5c-0.1-0.1-0.2-0.3-0.2-0.4c0-0.1,0-0.3,0-0.4c0.1-0.2,0.1-0.4,0.3-0.6
			c1-2.1,1.9-4.1,2.8-6.1c0.9-2,1.8-4.1,2.6-6.2c-0.5,0.6-1,1.2-1.4,1.8c-0.5,0.6-1,1.2-1.5,1.9c-0.5,0.7-1,1.3-1.5,2
			s-1.1,1.3-1.7,1.9c-0.3,0.2-0.5,0.4-0.7,0.5c-0.2,0.1-0.5,0-0.8-0.1c-0.2-0.1-0.4-0.3-0.5-0.4c-0.1-0.2-0.2-0.4-0.2-0.6
			c-0.1-0.2-0.1-0.5,0-1c0.1-0.5,0.1-1,0.2-1.6c0.1-0.6,0.2-1.3,0.4-1.9c0.1-0.7,0.3-1.3,0.4-2s0.3-1.2,0.4-1.7
			c0.1-0.5,0.2-0.9,0.3-1.2l-1,2c-0.7,1.3-1.3,2.6-1.9,4c-0.6,1.3-1.2,2.7-1.7,4c-0.1,0.3-0.2,0.6-0.3,0.9c-0.1,0.3-0.2,0.6-0.4,0.9
			c-0.1,0.3-0.3,0.4-0.5,0.4c-0.2,0-0.4-0.1-0.6-0.2c-0.6-0.3-0.9-0.6-1.1-1S94.7,37.6,95,37c0.6-1.2,1.2-2.4,1.7-3.6
			c0.5-1.2,1.1-2.4,1.7-3.6c0.1-0.2,0.2-0.5,0.5-0.9c0.2-0.4,0.5-0.9,0.8-1.5c0.3-0.6,0.6-1.2,1-1.8c0.4-0.7,0.7-1.3,1.1-2
			c0.4-0.7,0.7-1.3,1.1-2c0.3-0.6,0.7-1.2,0.9-1.7c0.3-0.5,0.5-0.9,0.7-1.2c0.2-0.3,0.3-0.5,0.4-0.6c0.1-0.1,0.2-0.2,0.3-0.2
			c0.1,0,0.2,0,0.3,0.1c0.4,0.2,0.6,0.4,0.8,0.7s0.2,0.7,0.1,1.1c0,0.3,0,0.7-0.1,1.4c-0.1,0.6-0.2,1.4-0.4,2.2
			c-0.2,0.8-0.4,1.7-0.6,2.7c-0.2,0.9-0.5,1.9-0.7,2.7c-0.2,0.9-0.4,1.7-0.6,2.4s-0.3,1.3-0.4,1.7c1.2-1.5,2.3-3.1,3.5-4.6
			c1.2-1.5,2.3-3.1,3.4-4.6c0.2-0.3,0.4-0.5,0.6-0.8c0.2-0.2,0.4-0.5,0.5-0.8c0.1-0.2,0.2-0.4,0.2-0.5c0-0.2,0.1-0.4,0.2-0.5
			c0.1-0.2,0.2-0.3,0.4-0.3c0.2,0,0.3,0.1,0.5,0.2c0.2,0.1,0.3,0.2,0.5,0.4c0.2,0.2,0.4,0.3,0.5,0.5c0.2,0.2,0.3,0.4,0.3,0.6
			c0.1,0.2,0,0.4,0,0.6c-0.2,0.3-0.4,0.7-0.6,1c-0.5,1.8-1.1,3.7-1.7,5.5s-1.3,3.6-2,5.3c-0.6,1.5-1.3,3-1.9,4.5
			c-0.7,1.5-1.3,3-1.9,4.5c0,0.1-0.1,0.2-0.1,0.3C105.8,44.3,105.8,44.4,105.8,44.5z"/>
		<path style="fill:#FFFFFF;" d="M118.6,41.1c-0.1,0.1-0.2,0.2-0.2,0.2c-0.1,0.1-0.2,0.2-0.3,0.2c-0.1,0.1-0.2,0.2-0.3,0.2
			c-0.1,0.1-0.2,0.1-0.2,0.2c-0.7,0.8-1.3,1.6-1.9,2.4c-0.6,0.8-1.2,1.7-1.7,2.6c-0.2,0.3-0.4,0.7-0.6,1c-0.2,0.3-0.4,0.7-0.5,1.1
			l0,0.1l0,0c0,0.1-0.1,0.2-0.1,0.2s-0.1,0.2-0.1,0.2c-0.1,0.1-0.2,0.2-0.3,0.2c-0.1,0-0.2,0-0.3,0s-0.2-0.1-0.3-0.1
			c-0.1-0.1-0.2-0.1-0.2-0.2c-0.3-0.2-0.5-0.4-0.6-0.6c-0.1-0.2-0.2-0.4-0.2-0.6c0-0.2,0-0.4,0.1-0.6c0.1-0.2,0.2-0.4,0.3-0.6
			l0.2-0.3c0.1-0.1,0.1-0.3,0.3-0.4c0-0.1,0.1-0.1,0.1-0.1c0,0,0,0,0.1-0.1c-0.3,0.1-0.6,0.2-1,0.3c-0.4,0.1-0.7,0.2-1.1,0.2
			c-0.4,0-0.7,0-1.1,0c-0.3,0-0.7-0.2-0.9-0.4c-0.4-0.3-0.6-0.6-0.6-1c0-0.4,0.1-0.8,0.2-1.2c0.2-0.4,0.4-0.8,0.7-1.1
			c0.3-0.4,0.5-0.7,0.7-0.9c0.8-1,1.6-1.9,2.5-2.8c0.9-0.9,1.7-1.8,2.6-2.7c0,0,0.1-0.1,0.1-0.1c0,0,0.1-0.1,0.1-0.1
			c0.1-0.1,0.2-0.2,0.3-0.3c0.1-0.1,0.2-0.2,0.3-0.2l0,0c0.1-0.1,0.3-0.2,0.4-0.2c0.1,0,0.2,0,0.4,0.2c0.1,0.1,0.2,0.2,0.3,0.4
			c0.1,0.2,0.2,0.3,0.2,0.5c0,0.2,0,0.3,0,0.5c0,0.2-0.1,0.3-0.2,0.5c-0.1,0.1-0.1,0.1-0.2,0.2c-0.1,0.1-0.1,0.2-0.2,0.2
			c0,0.1-0.1,0.1-0.2,0.2c-0.1,0.1-0.1,0.2-0.2,0.2c-0.7,0.8-1.5,1.5-2.2,2.3c-0.7,0.8-1.4,1.6-2.1,2.4c-0.2,0.2-0.4,0.5-0.6,0.7
			c-0.2,0.2-0.4,0.5-0.5,0.8c0.6-0.1,1.2-0.4,1.9-0.8c0.7-0.4,1.3-0.8,2-1.4s1.3-1,1.9-1.6c0.6-0.5,1.1-1,1.6-1.5c0,0,0-0.1,0.1-0.1
			c0,0,0.1-0.1,0.1-0.1c0.1-0.1,0.2-0.2,0.2-0.2c0.1-0.1,0.2-0.1,0.3-0.2c0.1-0.1,0.1-0.2,0.2-0.2c0.1-0.1,0.2-0.1,0.3-0.2
			c0.1,0,0.2-0.1,0.3-0.1c0.1,0,0.2,0.1,0.3,0.2c0.3,0.3,0.5,0.6,0.6,1c0,0.4-0.1,0.7-0.3,1.1c0,0.1,0,0.2-0.1,0.3
			C118.7,41,118.6,41.1,118.6,41.1z"/>
		<path style="fill:#FFFFFF;" d="M115.5,53.1c-0.1,0.1-0.2,0.1-0.3,0.1c-0.1,0-0.2,0-0.3,0c-0.1,0-0.2-0.1-0.2-0.1
			c-0.1-0.1-0.1-0.1-0.2-0.2c-0.1-0.1-0.2-0.2-0.3-0.3c-0.1-0.1-0.2-0.3-0.2-0.4c-0.1-0.2-0.1-0.3-0.1-0.5c0-0.1,0-0.3,0-0.4
			c0-0.1,0.2-0.3,0.3-0.5c0.2-0.2,0.4-0.5,0.7-0.8c0.3-0.3,0.6-0.6,0.9-0.9c0.3-0.3,0.6-0.6,0.9-0.9c0.3-0.3,0.6-0.6,0.8-0.8
			c0.2-0.2,0.4-0.4,0.5-0.5c0.6-0.5,1.1-1,1.7-1.5c0.6-0.5,1.1-1,1.7-1.4c0,0-0.1-0.1-0.1-0.1c0,0-0.1-0.1-0.1-0.1
			c-0.1-0.1-0.2-0.2-0.3-0.3c-0.1-0.1-0.2-0.2-0.3-0.3c-0.1-0.1-0.2-0.3-0.3-0.4c0-0.2,0-0.3,0.2-0.5c0.2-0.2,0.4-0.3,0.6-0.3
			c0.2,0,0.4,0,0.6,0.1c0.2,0.1,0.4,0.2,0.6,0.3s0.3,0.3,0.5,0.4c0,0,0,0,0,0c0,0,0,0,0.1,0c0.1-0.1,0.2-0.2,0.4-0.3
			c0.1-0.1,0.3-0.3,0.5-0.4c0.3-0.2,0.6-0.5,0.9-0.8c0.3-0.3,0.6-0.5,0.9-0.8c0.3-0.2,0.6-0.5,0.8-0.6c0.2-0.2,0.4-0.3,0.5-0.3
			c0.1-0.1,0.3-0.1,0.4-0.1c0.1,0,0.2,0.1,0.4,0.2c0.3,0.3,0.4,0.7,0.4,1c0,0.4-0.2,0.7-0.5,1c-0.4,0.3-0.7,0.6-1.1,1
			s-0.8,0.6-1.1,0.9l-0.7,0.5c0.2,0.2,0.4,0.4,0.7,0.5c0.2,0.2,0.4,0.3,0.7,0.5c0.2,0.2,0.4,0.3,0.6,0.5c0.1,0.2,0.2,0.3,0.2,0.5
			c0,0.2-0.1,0.3-0.2,0.5c-0.2,0.2-0.4,0.3-0.6,0.4c-0.2,0.1-0.5,0.1-0.7,0l0,0c0,0-0.2-0.1-0.3-0.2c-0.2-0.1-0.4-0.3-0.6-0.5
			c-0.2-0.2-0.4-0.4-0.6-0.5c-0.2-0.2-0.4-0.3-0.5-0.4l0,0c-0.5,0.4-0.9,0.8-1.4,1.2c-0.5,0.4-0.9,0.8-1.4,1.2
			c-0.6,0.6-1.3,1.2-1.9,1.9c-0.7,0.7-1.3,1.4-1.8,2l-0.5,0.6c-0.1,0.2-0.2,0.3-0.3,0.5C115.7,52.8,115.6,53,115.5,53.1z"/>
		<path style="fill:#FFFFFF;" d="M119.4,58.1c-0.1,0.1-0.2,0.1-0.3,0.1c-0.1,0-0.2,0-0.3-0.1c-0.1,0-0.2-0.1-0.2-0.2
			c-0.1-0.1-0.1-0.1-0.2-0.2c-0.1-0.1-0.1-0.2-0.2-0.4s-0.1-0.3-0.2-0.5c0-0.2-0.1-0.3-0.1-0.5c0-0.2,0-0.3,0.1-0.4
			c0-0.1,0.2-0.3,0.4-0.5c0.2-0.2,0.5-0.5,0.8-0.7c0.3-0.3,0.6-0.5,1-0.8c0.4-0.3,0.7-0.6,1-0.8c0.3-0.3,0.6-0.5,0.9-0.7
			c0.3-0.2,0.5-0.4,0.6-0.4c0.6-0.5,1.2-0.9,1.8-1.3c0.6-0.4,1.2-0.8,1.9-1.2c0,0-0.1-0.1-0.1-0.1c0,0-0.1-0.1-0.1-0.1
			c-0.1-0.1-0.2-0.2-0.3-0.3s-0.2-0.2-0.3-0.4c-0.1-0.2-0.2-0.3-0.2-0.5c0-0.2,0-0.3,0.2-0.4c0.2-0.2,0.4-0.2,0.6-0.2
			c0.2,0,0.4,0.1,0.6,0.2c0.2,0.1,0.4,0.2,0.5,0.4c0.2,0.2,0.3,0.3,0.5,0.5c0,0,0,0,0,0c0,0,0,0,0,0c0.1-0.1,0.3-0.2,0.4-0.3
			c0.2-0.1,0.3-0.2,0.5-0.3c0.3-0.2,0.6-0.4,1-0.6c0.4-0.2,0.7-0.4,1-0.6s0.6-0.4,0.9-0.5c0.3-0.1,0.4-0.2,0.6-0.3
			c0.1,0,0.3-0.1,0.4,0c0.1,0,0.2,0.1,0.3,0.3c0.3,0.4,0.3,0.7,0.3,1.1c-0.1,0.4-0.3,0.7-0.6,0.9c-0.4,0.3-0.8,0.6-1.2,0.8
			s-0.8,0.5-1.2,0.8l-0.7,0.5c0.2,0.2,0.4,0.4,0.6,0.6c0.2,0.2,0.4,0.4,0.6,0.6c0.2,0.2,0.4,0.4,0.5,0.6c0.1,0.2,0.2,0.4,0.2,0.5
			c0,0.2-0.1,0.3-0.3,0.4c-0.2,0.1-0.4,0.2-0.7,0.3c-0.2,0.1-0.5,0-0.7-0.1l0,0c0,0-0.1-0.1-0.3-0.3c-0.2-0.2-0.3-0.3-0.5-0.5
			c-0.2-0.2-0.4-0.4-0.6-0.6c-0.2-0.2-0.3-0.4-0.4-0.5l0,0c-0.5,0.3-1,0.7-1.5,1s-1,0.7-1.5,1.1c-0.7,0.5-1.4,1-2.2,1.6
			c-0.7,0.6-1.4,1.2-2.1,1.8l-0.5,0.5c-0.1,0.1-0.3,0.3-0.4,0.4C119.7,57.9,119.5,58,119.4,58.1z"/>
		<path style="fill:#FFFFFF;" d="M141.9,67.8c-2.5,0.9-4.9,1.6-7.5,2.1c-2.5,0.5-5.1,0.7-7.8,0.6c-0.1,0.1-0.1,0.1-0.3,0.3
			s-0.2,0.2-0.4,0.3s-0.2,0.2-0.4,0.3c-0.1,0.1-0.2,0.2-0.3,0.2c-0.1,0.1-0.3,0.1-0.4,0c-0.1-0.1-0.2-0.1-0.3-0.3
			c-0.1-0.1-0.1-0.2-0.2-0.4c0-0.1-0.1-0.2-0.1-0.3c-0.1-0.3-0.2-0.5-0.2-0.7c0-0.2,0-0.5,0.1-0.7c0.1-0.2,0.3-0.5,0.7-0.9
			c0.4-0.4,1-0.8,1.6-1.3c0.7-0.5,1.4-1.1,2.3-1.7c0.8-0.6,1.7-1.2,2.6-1.8c0.9-0.6,1.8-1.2,2.7-1.8c0.9-0.6,1.7-1.2,2.5-1.7
			c0.8-0.5,1.5-1,2.1-1.3c0.6-0.4,1-0.7,1.3-0.9c0.5-0.3,1-0.6,1.4-1c0.5-0.3,1-0.6,1.5-0.8c0.2-0.1,0.3,0,0.4,0.1
			c0.1,0.1,0.2,0.2,0.2,0.4c0.1,0.3,0.2,0.6,0.2,0.9c0,0.3-0.1,0.6-0.3,0.8c-0.1,0.1-0.3,0.3-0.5,0.4c-0.2,0.1-0.4,0.3-0.6,0.3
			c-1.4,0.9-2.8,1.8-4.1,2.7c-1.4,0.9-2.7,1.9-4.1,2.8c-0.8,0.6-1.7,1.2-2.5,1.8c-0.8,0.6-1.6,1.2-2.5,1.9c1.8-0.1,3.6-0.4,5.4-0.8
			c1.8-0.4,3.5-1,5.3-1.6c0.3-0.1,0.6-0.2,1-0.4c0.4-0.2,0.8-0.3,1.3-0.5c0.5-0.2,0.9-0.4,1.4-0.6c0.5-0.2,0.9-0.4,1.4-0.6
			s0.8-0.4,1.2-0.6c0.4-0.2,0.6-0.4,0.8-0.6c0.1-0.1,0.1-0.1,0.2-0.2c0.1-0.1,0.1-0.1,0.2-0.1c0.1,0,0.2,0,0.3,0
			c0.1,0.1,0.2,0.2,0.3,0.3c0.1,0.1,0.2,0.2,0.2,0.4c0.1,0.1,0.1,0.2,0.1,0.3c0.1,0.3,0.2,0.5,0.2,0.8c0,0.2,0,0.5-0.2,0.8
			c-0.1,0.1-0.2,0.3-0.5,0.5s-0.7,0.4-1.1,0.6c-0.4,0.2-0.9,0.4-1.4,0.7c-0.5,0.2-1,0.4-1.5,0.6c-0.5,0.2-0.9,0.4-1.3,0.5
			C142.4,67.7,142.1,67.8,141.9,67.8z"/>
		<path style="fill:#FFFFFF;" d="M138.6,79.4c-0.1,0-0.2,0-0.3,0c-0.1,0-0.2,0-0.3,0c-0.1,0-0.2,0-0.3,0c-0.1,0-0.2,0-0.3,0
			c-1,0.2-2,0.4-3,0.6c-1,0.2-2,0.5-3,0.9c-0.4,0.1-0.7,0.3-1.1,0.4c-0.4,0.1-0.7,0.3-1.1,0.5l-0.1,0.1l0,0c-0.1,0-0.1,0.1-0.2,0.1
			c-0.1,0-0.2,0.1-0.2,0.1c-0.1,0-0.2,0-0.3,0c-0.1,0-0.2-0.1-0.2-0.2c-0.1-0.1-0.1-0.2-0.1-0.3c0-0.1-0.1-0.2-0.1-0.3
			c-0.1-0.4-0.1-0.7,0-0.9c0-0.2,0.1-0.4,0.2-0.6c0.1-0.2,0.3-0.3,0.5-0.4c0.2-0.1,0.4-0.2,0.7-0.3l0.3-0.1c0.1-0.1,0.3-0.1,0.5-0.2
			c0.1,0,0.1,0,0.1,0s0,0,0.1,0c-0.3-0.1-0.6-0.2-1-0.4c-0.3-0.1-0.7-0.3-1-0.5c-0.3-0.2-0.6-0.4-0.8-0.7c-0.2-0.3-0.4-0.6-0.4-0.9
			c-0.1-0.5,0-0.9,0.2-1.2c0.2-0.3,0.5-0.6,0.9-0.8c0.4-0.2,0.8-0.3,1.2-0.5s0.8-0.2,1.1-0.2c1.2-0.2,2.5-0.4,3.7-0.6
			s2.5-0.3,3.7-0.4c0,0,0.1,0,0.1,0c0.1,0,0.1,0,0.1,0c0.2,0,0.3,0,0.4,0c0.1,0,0.3,0,0.4,0l0,0c0.2,0,0.3,0,0.4,0.1
			c0.1,0.1,0.2,0.2,0.2,0.4c0,0.2,0,0.3,0,0.5c0,0.2-0.1,0.3-0.2,0.5c-0.1,0.2-0.2,0.3-0.3,0.4c-0.1,0.1-0.3,0.2-0.5,0.2
			c-0.1,0-0.2,0-0.3,0.1c-0.1,0-0.2,0-0.3,0c-0.1,0-0.2,0-0.3,0c-0.1,0-0.2,0-0.3,0c-1.1,0.1-2.1,0.2-3.1,0.4s-2.1,0.3-3.1,0.5
			c-0.3,0.1-0.6,0.1-0.9,0.2c-0.3,0.1-0.6,0.1-0.9,0.3c0.5,0.3,1.2,0.5,1.9,0.6c0.8,0.1,1.6,0.2,2.4,0.2c0.8,0,1.7,0,2.5,0
			c0.8,0,1.5-0.1,2.1-0.1c0,0,0.1,0,0.1,0s0.1,0,0.1,0c0.1,0,0.2,0,0.3,0c0.1,0,0.2,0,0.3,0.1c0.1,0,0.2,0,0.3,0c0.1,0,0.2,0,0.3,0
			c0.1,0,0.2,0.1,0.3,0.1c0.1,0.1,0.1,0.2,0.1,0.3c0.1,0.4,0,0.8-0.2,1.1c-0.2,0.3-0.5,0.5-0.9,0.6c-0.1,0.1-0.2,0.1-0.2,0.2
			C138.8,79.3,138.7,79.3,138.6,79.4z"/>
		<path style="fill:#FFFFFF;" d="M131.3,89.1c-0.3,0-0.7-0.1-1-0.2c-0.4-0.2-0.7-0.4-1-0.7c-0.3-0.3-0.6-0.6-0.8-1
			c-0.2-0.4-0.3-0.7-0.3-1.1c0-0.5,0.1-1,0.3-1.4c0.2-0.4,0.5-0.7,0.8-1c0.3-0.3,0.7-0.5,1.2-0.7c0.4-0.2,0.9-0.3,1.4-0.5
			c0.5-0.1,0.9-0.2,1.4-0.3c0.5-0.1,0.9-0.1,1.3-0.1c0.3,0,0.7,0,1.2,0c0.5,0,0.9,0.1,1.4,0.1c0.5,0.1,1,0.2,1.5,0.3
			c0.5,0.1,0.9,0.3,1.3,0.6c0.4,0.2,0.7,0.5,0.9,0.9s0.4,0.7,0.4,1.2c0,0.4,0,0.7-0.2,1c-0.1,0.3-0.3,0.5-0.5,0.7
			c-0.2,0.2-0.5,0.4-0.8,0.5c-0.3,0.1-0.6,0.2-1,0.2c-0.4,0-0.9-0.1-1.4-0.2c-0.5-0.2-1-0.4-1.5-0.7c-0.5-0.3-0.9-0.6-1.3-1
			c-0.4-0.4-0.7-0.8-0.9-1.1c-0.2,0-0.5,0.1-0.9,0.2c-0.4,0.1-0.8,0.2-1.1,0.3s-0.7,0.3-1,0.5c-0.3,0.2-0.4,0.4-0.4,0.6
			c0,0.1,0,0.2,0.1,0.3c0.1,0.1,0.2,0.2,0.3,0.2c0.1,0.1,0.2,0.1,0.4,0.2s0.3,0.1,0.4,0.1l0.2,0.1c0,0,0.1,0,0.1,0c0,0,0,0,0.1,0
			c0.1,0.1,0.3,0.1,0.4,0.2c0.1,0.1,0.2,0.2,0.3,0.3l0,0c0,0,0.1,0.1,0.1,0.1s0,0.1,0,0.1c0,0.1,0,0.3-0.1,0.4
			c-0.1,0.1-0.2,0.3-0.3,0.4c-0.1,0.1-0.2,0.2-0.4,0.3C131.5,89.1,131.4,89.1,131.3,89.1z M138.5,85.6c0.1,0,0.2,0,0.3,0
			s0.2,0,0.3-0.1c-0.2-0.1-0.4-0.3-0.7-0.4c-0.3-0.1-0.5-0.2-0.8-0.3c-0.3-0.1-0.6-0.1-0.9-0.2c-0.3,0-0.6-0.1-0.8-0.1
			c0.4,0.3,0.8,0.5,1.2,0.7S138,85.6,138.5,85.6z"/>
		<path style="fill:#F41E70;" d="M129.9,89.7c0.1,0,0.2,0,0.2,0.1c0.1,0.1,0.1,0.2,0.1,0.3c0,0.1,0,0.2,0,0.4c0,0.1,0,0.2,0,0.3
			c0,0.1,0,0.2,0,0.4c0,0.1,0,0.3-0.1,0.4s-0.1,0.2-0.2,0.3c-0.1,0.1-0.2,0.1-0.3,0.1c-0.1,0-0.2,0-0.4,0s-0.4,0-0.6,0
			c-0.2,0-0.4,0-0.6,0c-0.2,0-0.3,0-0.3,0c-0.1-0.1-0.2-0.2-0.2-0.4c0-0.1,0-0.3,0-0.4c0-0.3,0.1-0.6,0.1-0.8c0-0.2,0.1-0.3,0.2-0.4
			s0.2-0.1,0.4-0.1c0.2,0,0.4,0,0.7-0.1c0.1,0,0.3-0.1,0.4-0.1C129.6,89.7,129.8,89.7,129.9,89.7z"/>
	</g>
	<g>
		<path style="fill:#CECECE;" d="M68,118l1.1,4.4c0,0,9.2-2.3,9.2-2.6c-0.2-0.9-1.1-2.1-1.1-2.1L68,118z"/>
	</g>
	<g>
		<path style="fill:#41B883;" d="M66.2,114.6c0,0,19.8-2.8,38.5-22.9l4.8,3.5c-17.9,22.1-40.9,26.2-40.9,26.2
			C66.2,114.6,66.2,114.6,66.2,114.6z"/>
	</g>
</g>
<g id="Layer_2">
</g>
<g id="Layer_3">
</g>
<g id="Layer_4">
</g>
<g id="Layer_5">
</g>
<g id="Layer_6">
</g>
</svg>
