<?xml version="1.0" encoding="utf-8"?>
<!-- Generator: Adobe Illustrator 21.1.0, SVG Export Plug-In . SVG Version: 6.00 Build 0)  -->
<svg version="1.1" xmlns="http://www.w3.org/2000/svg" xmlns:xlink="http://www.w3.org/1999/xlink" x="0px" y="0px"
	 viewBox="0 0 275 275" style="enable-background:new 0 0 156 156;" xml:space="preserve" width="275" height="275">
<style type="text/css">
	.st0{fill:#2A3D49;}
	.st1{fill:#FFFFFF;}
	.st2{fill:#F41E70;}
	.st3{fill:#ECEBEB;}
	.st4{opacity:0.12;}
	.st5{fill:#2F4859;}
	.st6{fill:#304858;}
	.st7{fill:#FCCA1B;}
	.st8{fill:#EAB713;}
	.st9{opacity:0.12;fill:#304858;}
	.st10{opacity:8.000000e-02;fill:#304858;}
	.st11{fill:#1ABC81;}
	.st12{opacity:0.7;fill:none;stroke:#666666;stroke-width:0.25;stroke-miterlimit:10;}
	.st13{opacity:8.000000e-02;}
	.st14{opacity:0.7;}
	.st15{fill:#666666;}
	.st16{fill:#2D77E2;}
	.st17{fill:#41B883;}
</style>
<g id="Layer_1">
	<g>
		<circle class="st0" cx="78" cy="78" r="75.3"/>
	</g>
	<g>
		<path class="st1" d="M105.8,44.5c-0.1,0.2-0.2,0.3-0.4,0.4c-0.2,0.1-0.3,0-0.6-0.1c-0.1-0.1-0.2-0.1-0.4-0.2
			c-0.1-0.1-0.2-0.2-0.3-0.3c-0.2-0.2-0.4-0.4-0.5-0.5c-0.1-0.1-0.2-0.3-0.2-0.4c0-0.1,0-0.3,0-0.4c0.1-0.2,0.1-0.4,0.3-0.6
			c1-2.1,1.9-4.1,2.8-6.1c0.9-2,1.8-4.1,2.6-6.2c-0.5,0.6-1,1.2-1.4,1.8c-0.5,0.6-1,1.2-1.5,1.9c-0.5,0.7-1,1.3-1.5,2
			c-0.5,0.7-1.1,1.3-1.7,1.9c-0.3,0.2-0.5,0.4-0.7,0.5c-0.2,0.1-0.5,0-0.8-0.1c-0.2-0.1-0.4-0.3-0.5-0.4c-0.1-0.2-0.2-0.4-0.2-0.6
			c-0.1-0.2-0.1-0.5,0-1s0.1-1,0.2-1.6c0.1-0.6,0.2-1.3,0.4-1.9c0.1-0.7,0.3-1.3,0.4-2c0.1-0.6,0.3-1.2,0.4-1.7
			c0.1-0.5,0.2-0.9,0.3-1.2l-1,2c-0.7,1.3-1.3,2.6-1.9,4c-0.6,1.3-1.2,2.7-1.7,4c-0.1,0.3-0.2,0.6-0.3,0.9c-0.1,0.3-0.2,0.6-0.4,0.9
			c-0.1,0.3-0.3,0.4-0.5,0.4c-0.2,0-0.4-0.1-0.6-0.2c-0.6-0.3-0.9-0.6-1.1-1s-0.1-0.9,0.2-1.5c0.6-1.2,1.2-2.4,1.7-3.6
			c0.5-1.2,1.1-2.4,1.7-3.6c0.1-0.2,0.2-0.5,0.5-0.9c0.2-0.4,0.5-0.9,0.8-1.5c0.3-0.6,0.6-1.2,1-1.8c0.4-0.7,0.7-1.3,1.1-2
			c0.4-0.7,0.7-1.3,1.1-2c0.3-0.6,0.7-1.2,0.9-1.7c0.3-0.5,0.5-0.9,0.7-1.2c0.2-0.3,0.3-0.5,0.4-0.6c0.1-0.1,0.2-0.2,0.3-0.2
			c0.1,0,0.2,0,0.3,0.1c0.4,0.2,0.6,0.4,0.8,0.7c0.2,0.3,0.2,0.7,0.1,1.1c0,0.3,0,0.7-0.1,1.4c-0.1,0.6-0.2,1.4-0.4,2.2
			s-0.4,1.7-0.6,2.7c-0.2,0.9-0.5,1.9-0.7,2.7c-0.2,0.9-0.4,1.7-0.6,2.4c-0.2,0.7-0.3,1.3-0.4,1.7c1.2-1.5,2.3-3.1,3.5-4.6
			c1.2-1.5,2.3-3.1,3.4-4.6c0.2-0.3,0.4-0.5,0.6-0.8c0.2-0.2,0.4-0.5,0.5-0.8c0.1-0.2,0.2-0.4,0.2-0.5c0-0.2,0.1-0.4,0.2-0.5
			c0.1-0.2,0.2-0.3,0.4-0.3c0.2,0,0.3,0.1,0.5,0.2c0.2,0.1,0.3,0.2,0.5,0.4c0.2,0.2,0.4,0.3,0.5,0.5c0.1,0.2,0.3,0.4,0.3,0.6
			c0.1,0.2,0.1,0.4-0.1,0.6c-0.2,0.3-0.4,0.7-0.6,1c-0.5,1.8-1.1,3.7-1.7,5.5s-1.3,3.6-2,5.3c-0.6,1.5-1.3,3-1.9,4.5
			c-0.7,1.5-1.3,3-1.9,4.5c0,0.1-0.1,0.2-0.1,0.3C105.9,44.3,105.8,44.4,105.8,44.5z"/>
		<path class="st1" d="M118.6,41.1c-0.1,0.1-0.2,0.2-0.2,0.2c-0.1,0.1-0.2,0.2-0.3,0.2c-0.1,0.1-0.2,0.2-0.3,0.2
			c-0.1,0.1-0.2,0.1-0.2,0.2c-0.7,0.8-1.3,1.6-1.9,2.4c-0.6,0.8-1.2,1.7-1.7,2.6c-0.2,0.3-0.4,0.7-0.6,1c-0.2,0.3-0.4,0.7-0.5,1.1
			l0,0.1l0,0c0,0.1-0.1,0.2-0.1,0.2c0,0.1-0.1,0.2-0.1,0.2c-0.1,0.1-0.2,0.2-0.3,0.2c-0.1,0-0.2,0-0.3,0c-0.1,0-0.2-0.1-0.3-0.1
			c-0.1-0.1-0.2-0.1-0.2-0.2c-0.3-0.2-0.5-0.4-0.6-0.6c-0.1-0.2-0.2-0.4-0.2-0.6c0-0.2,0-0.4,0.1-0.6s0.2-0.4,0.3-0.6l0.2-0.3
			c0.1-0.1,0.1-0.3,0.3-0.4c0-0.1,0.1-0.1,0.1-0.1c0,0,0,0,0.1-0.1c-0.3,0.1-0.6,0.2-1,0.3c-0.4,0.1-0.7,0.2-1.1,0.2
			c-0.4,0-0.7,0-1.1,0s-0.7-0.2-0.9-0.4c-0.4-0.3-0.6-0.6-0.6-1c0-0.4,0.1-0.8,0.2-1.2s0.4-0.8,0.7-1.1c0.3-0.4,0.5-0.7,0.7-0.9
			c0.8-1,1.6-1.9,2.5-2.8c0.9-0.9,1.7-1.8,2.6-2.7c0,0,0.1-0.1,0.1-0.1c0,0,0.1-0.1,0.1-0.1c0.1-0.1,0.2-0.2,0.3-0.3
			s0.2-0.2,0.3-0.2l0,0c0.1-0.1,0.3-0.2,0.4-0.2s0.2,0,0.4,0.2c0.1,0.1,0.2,0.2,0.3,0.4c0.1,0.2,0.2,0.3,0.2,0.5c0,0.2,0,0.3,0,0.5
			c0,0.2-0.1,0.3-0.2,0.5c-0.1,0.1-0.1,0.1-0.2,0.2c-0.1,0.1-0.1,0.2-0.2,0.2c0,0.1-0.1,0.1-0.2,0.2c-0.1,0.1-0.1,0.2-0.2,0.2
			c-0.7,0.8-1.5,1.5-2.2,2.3c-0.7,0.8-1.4,1.6-2.1,2.4c-0.2,0.2-0.4,0.5-0.6,0.7c-0.2,0.2-0.4,0.5-0.5,0.8c0.6-0.1,1.2-0.4,1.9-0.8
			c0.7-0.4,1.3-0.8,2-1.4c0.7-0.5,1.3-1,1.9-1.6c0.6-0.5,1.1-1,1.6-1.5c0,0,0-0.1,0.1-0.1c0,0,0.1-0.1,0.1-0.1
			c0.1-0.1,0.2-0.2,0.2-0.2s0.2-0.1,0.3-0.2c0.1-0.1,0.1-0.2,0.2-0.2c0.1-0.1,0.2-0.1,0.3-0.2c0.1,0,0.2-0.1,0.3-0.1
			c0.1,0,0.2,0.1,0.3,0.2c0.3,0.3,0.5,0.6,0.6,1c0,0.4-0.1,0.7-0.3,1.1c0,0.1,0,0.2-0.1,0.3S118.7,41,118.6,41.1z"/>
		<path class="st1" d="M115.5,53.1c-0.1,0.1-0.2,0.1-0.3,0.1c-0.1,0-0.2,0-0.3,0c-0.1,0-0.2-0.1-0.2-0.1c-0.1-0.1-0.1-0.1-0.2-0.2
			c-0.1-0.1-0.2-0.2-0.3-0.3c-0.1-0.1-0.2-0.3-0.2-0.4c-0.1-0.2-0.1-0.3-0.1-0.5c0-0.1,0-0.3,0-0.4c0-0.1,0.1-0.3,0.3-0.6
			c0.2-0.2,0.4-0.5,0.7-0.8c0.3-0.3,0.6-0.6,0.9-0.9c0.3-0.3,0.6-0.6,0.9-0.9c0.3-0.3,0.6-0.6,0.8-0.8c0.2-0.2,0.4-0.4,0.6-0.5
			c0.6-0.5,1.1-1,1.7-1.5c0.6-0.5,1.1-1,1.7-1.4c0,0-0.1-0.1-0.1-0.1c0,0-0.1-0.1-0.1-0.1c-0.1-0.1-0.2-0.2-0.3-0.3
			c-0.1-0.1-0.2-0.2-0.3-0.3c-0.1-0.1-0.2-0.3-0.3-0.4c0-0.2,0-0.3,0.2-0.5c0.2-0.2,0.4-0.3,0.6-0.3c0.2,0,0.4,0,0.6,0.1
			c0.2,0.1,0.4,0.2,0.6,0.3c0.2,0.1,0.3,0.3,0.5,0.4c0,0,0,0,0.1,0c0,0,0,0,0.1,0c0.1-0.1,0.2-0.2,0.4-0.3c0.1-0.1,0.3-0.3,0.5-0.4
			c0.3-0.2,0.6-0.5,0.9-0.8c0.3-0.3,0.6-0.5,0.9-0.8c0.3-0.2,0.6-0.5,0.8-0.6c0.2-0.2,0.4-0.3,0.5-0.3c0.1-0.1,0.3-0.1,0.4-0.1
			c0.1,0,0.2,0.1,0.4,0.2c0.3,0.3,0.4,0.7,0.4,1s-0.2,0.7-0.5,1c-0.4,0.3-0.7,0.6-1.1,1c-0.4,0.3-0.8,0.6-1.1,0.9l-0.7,0.5
			c0.2,0.2,0.4,0.4,0.7,0.5c0.2,0.2,0.4,0.3,0.7,0.5c0.2,0.2,0.4,0.3,0.6,0.5c0.1,0.2,0.2,0.3,0.2,0.5c0,0.2-0.1,0.3-0.2,0.5
			c-0.2,0.2-0.4,0.3-0.6,0.4c-0.2,0.1-0.5,0.1-0.7,0l0,0c0,0-0.2-0.1-0.3-0.2c-0.2-0.1-0.4-0.3-0.6-0.5s-0.4-0.4-0.6-0.5
			c-0.2-0.2-0.4-0.3-0.5-0.4l0,0c-0.5,0.4-0.9,0.8-1.4,1.2c-0.5,0.4-0.9,0.8-1.4,1.2c-0.6,0.6-1.3,1.2-1.9,1.9
			c-0.7,0.7-1.3,1.4-1.8,2l-0.5,0.6c-0.1,0.2-0.2,0.3-0.3,0.5C115.8,52.8,115.6,53,115.5,53.1z"/>
		<path class="st1" d="M119.4,58.1c-0.1,0.1-0.2,0.1-0.3,0.1c-0.1,0-0.2,0-0.3-0.1c-0.1,0-0.2-0.1-0.2-0.2c-0.1-0.1-0.1-0.1-0.2-0.2
			c-0.1-0.1-0.1-0.2-0.2-0.4c-0.1-0.1-0.1-0.3-0.2-0.5c0-0.2-0.1-0.3-0.1-0.5s0-0.3,0.1-0.4c0.1-0.1,0.2-0.3,0.4-0.5
			c0.2-0.2,0.5-0.5,0.8-0.7c0.3-0.3,0.6-0.5,1-0.8c0.4-0.3,0.7-0.6,1-0.8c0.3-0.3,0.6-0.5,0.9-0.7c0.3-0.2,0.5-0.4,0.6-0.4
			c0.6-0.5,1.2-0.9,1.9-1.3c0.6-0.4,1.2-0.8,1.9-1.2c0,0-0.1-0.1-0.1-0.1c0,0-0.1-0.1-0.1-0.1c-0.1-0.1-0.2-0.2-0.3-0.3
			c-0.1-0.1-0.2-0.2-0.3-0.4c-0.1-0.2-0.2-0.3-0.2-0.5c0-0.2,0-0.3,0.2-0.4c0.2-0.2,0.4-0.2,0.6-0.2c0.2,0,0.4,0.1,0.6,0.1
			c0.2,0.1,0.4,0.2,0.5,0.4s0.3,0.3,0.5,0.5c0,0,0,0,0,0c0,0,0,0,0,0c0.1-0.1,0.3-0.2,0.4-0.3c0.2-0.1,0.3-0.2,0.5-0.3
			c0.3-0.2,0.6-0.4,1-0.6c0.3-0.2,0.7-0.4,1-0.6c0.3-0.2,0.6-0.4,0.9-0.5c0.3-0.1,0.4-0.2,0.6-0.3c0.1,0,0.3-0.1,0.4,0
			c0.1,0,0.2,0.1,0.3,0.3c0.3,0.4,0.3,0.7,0.3,1.1c-0.1,0.4-0.3,0.7-0.6,0.9c-0.4,0.3-0.8,0.6-1.2,0.8s-0.8,0.5-1.2,0.8l-0.7,0.5
			c0.2,0.2,0.4,0.4,0.6,0.6c0.2,0.2,0.4,0.4,0.6,0.6c0.2,0.2,0.4,0.4,0.5,0.6c0.1,0.2,0.2,0.4,0.2,0.5c0,0.2-0.1,0.3-0.3,0.4
			c-0.2,0.1-0.4,0.2-0.7,0.3c-0.2,0.1-0.5,0-0.7-0.1l0,0c0,0-0.1-0.1-0.3-0.3c-0.2-0.2-0.3-0.3-0.5-0.6c-0.2-0.2-0.4-0.4-0.6-0.6
			c-0.2-0.2-0.3-0.4-0.4-0.5l0,0c-0.5,0.3-1,0.7-1.5,1c-0.5,0.3-1,0.7-1.5,1.1c-0.7,0.5-1.4,1-2.2,1.6c-0.7,0.6-1.4,1.2-2.1,1.8
			l-0.5,0.5c-0.1,0.1-0.3,0.3-0.4,0.4C119.7,57.9,119.6,58,119.4,58.1z"/>
		<path class="st1" d="M142,67.8c-2.5,0.9-4.9,1.6-7.5,2.1c-2.5,0.5-5.1,0.7-7.8,0.6c-0.1,0.1-0.1,0.1-0.3,0.3
			c-0.1,0.1-0.2,0.2-0.4,0.3c-0.1,0.1-0.2,0.2-0.4,0.3c-0.1,0.1-0.2,0.2-0.3,0.2c-0.1,0.1-0.3,0.1-0.4,0c-0.1-0.1-0.2-0.1-0.3-0.3
			c-0.1-0.1-0.1-0.2-0.2-0.4c0-0.1-0.1-0.2-0.1-0.3c-0.1-0.3-0.2-0.5-0.2-0.7c0-0.2,0-0.5,0.1-0.7c0.1-0.2,0.3-0.5,0.7-0.9
			c0.4-0.4,1-0.8,1.6-1.3c0.7-0.5,1.4-1.1,2.3-1.7c0.8-0.6,1.7-1.2,2.6-1.8c0.9-0.6,1.8-1.2,2.7-1.8c0.9-0.6,1.7-1.2,2.5-1.7
			c0.8-0.5,1.5-1,2.1-1.4c0.6-0.4,1-0.7,1.3-0.9c0.5-0.3,1-0.6,1.4-1c0.5-0.3,1-0.6,1.5-0.8c0.2-0.1,0.3,0,0.4,0.1
			c0.1,0.1,0.2,0.2,0.2,0.4c0.1,0.3,0.2,0.6,0.2,0.9c0,0.3-0.1,0.6-0.3,0.8c-0.1,0.1-0.3,0.3-0.5,0.4c-0.2,0.1-0.4,0.3-0.6,0.3
			c-1.4,0.9-2.8,1.8-4.1,2.7c-1.4,0.9-2.7,1.9-4.1,2.8c-0.8,0.6-1.7,1.2-2.5,1.8c-0.8,0.6-1.6,1.2-2.5,1.9c1.8-0.1,3.6-0.4,5.4-0.8
			c1.8-0.4,3.5-1,5.3-1.6c0.3-0.1,0.6-0.2,1-0.4s0.8-0.3,1.3-0.5c0.5-0.2,0.9-0.4,1.4-0.6c0.5-0.2,0.9-0.4,1.4-0.6
			c0.4-0.2,0.8-0.4,1.2-0.6s0.6-0.4,0.8-0.6c0.1-0.1,0.1-0.1,0.2-0.2c0.1-0.1,0.1-0.1,0.2-0.1c0.1,0,0.2,0,0.3,0
			c0.1,0.1,0.2,0.2,0.3,0.3c0.1,0.1,0.2,0.2,0.2,0.4c0.1,0.1,0.1,0.2,0.1,0.3c0.1,0.3,0.2,0.5,0.2,0.8c0,0.2,0,0.5-0.2,0.8
			c-0.1,0.1-0.2,0.3-0.5,0.5s-0.7,0.4-1.1,0.6c-0.4,0.2-0.9,0.4-1.4,0.7c-0.5,0.2-1,0.4-1.5,0.6c-0.5,0.2-0.9,0.4-1.3,0.5
			C142.4,67.6,142.1,67.8,142,67.8z"/>
		<path class="st1" d="M138.7,79.4c-0.1,0-0.2,0-0.3,0c-0.1,0-0.2,0-0.3,0c-0.1,0-0.2,0-0.3,0c-0.1,0-0.2,0-0.3,0
			c-1,0.2-2,0.4-3,0.6c-1,0.2-2,0.5-3,0.9c-0.4,0.1-0.8,0.3-1.1,0.4c-0.4,0.1-0.7,0.3-1.1,0.5l-0.1,0.1l0,0c-0.1,0-0.1,0.1-0.2,0.1
			c-0.1,0-0.2,0.1-0.2,0.1c-0.1,0-0.2,0-0.3,0c-0.1,0-0.2-0.1-0.2-0.2c-0.1-0.1-0.1-0.2-0.1-0.3c0-0.1-0.1-0.2-0.1-0.3
			c-0.1-0.4-0.1-0.7,0-0.9c0-0.2,0.1-0.4,0.2-0.6c0.1-0.2,0.3-0.3,0.5-0.4c0.2-0.1,0.4-0.2,0.7-0.3l0.3-0.1c0.1-0.1,0.3-0.1,0.5-0.2
			c0.1,0,0.1,0,0.1,0c0,0,0,0,0.1,0c-0.3-0.1-0.6-0.2-1-0.4c-0.3-0.1-0.7-0.3-1-0.5c-0.3-0.2-0.6-0.4-0.8-0.7
			c-0.2-0.3-0.4-0.6-0.4-0.9c-0.1-0.5,0-0.9,0.2-1.2c0.2-0.3,0.5-0.6,0.9-0.8c0.4-0.2,0.8-0.3,1.2-0.5c0.4-0.1,0.8-0.2,1.1-0.3
			c1.2-0.2,2.5-0.4,3.7-0.6c1.2-0.1,2.5-0.3,3.7-0.4c0,0,0.1,0,0.1,0c0.1,0,0.1,0,0.1,0c0.2,0,0.3,0,0.4,0c0.1,0,0.3,0,0.4,0l0,0
			c0.2,0,0.3,0,0.4,0.1c0.1,0.1,0.2,0.2,0.2,0.4c0,0.2,0,0.3,0,0.5c0,0.2-0.1,0.3-0.2,0.5c-0.1,0.2-0.2,0.3-0.3,0.4
			c-0.1,0.1-0.3,0.2-0.5,0.2c-0.1,0-0.2,0-0.3,0.1c-0.1,0-0.2,0-0.3,0c-0.1,0-0.2,0-0.3,0c-0.1,0-0.2,0-0.3,0
			c-1.1,0.1-2.1,0.2-3.1,0.4c-1,0.2-2.1,0.3-3.1,0.5c-0.3,0.1-0.6,0.1-0.9,0.2c-0.3,0.1-0.6,0.1-0.9,0.3c0.5,0.3,1.2,0.5,1.9,0.6
			c0.8,0.1,1.6,0.2,2.4,0.2c0.8,0,1.7,0,2.5,0c0.8,0,1.5-0.1,2.1-0.1c0,0,0.1,0,0.1,0c0,0,0.1,0,0.1,0c0.1,0,0.2,0,0.3,0
			c0.1,0,0.2,0,0.3,0.1c0.1,0,0.2,0,0.3,0c0.1,0,0.2,0,0.3,0c0.1,0,0.2,0.1,0.3,0.1c0.1,0.1,0.1,0.2,0.1,0.3c0.1,0.4,0,0.8-0.2,1.1
			c-0.2,0.3-0.5,0.5-0.9,0.6c-0.1,0.1-0.2,0.1-0.2,0.2C138.8,79.3,138.8,79.3,138.7,79.4z"/>
		<path class="st1" d="M131.3,89.1c-0.3,0-0.7-0.1-1-0.2c-0.4-0.2-0.7-0.4-1-0.7c-0.3-0.3-0.6-0.6-0.8-1c-0.2-0.4-0.3-0.7-0.3-1.1
			c0-0.5,0.1-1,0.3-1.4c0.2-0.4,0.5-0.7,0.8-1c0.3-0.3,0.7-0.5,1.2-0.7c0.4-0.2,0.9-0.3,1.4-0.5c0.5-0.1,0.9-0.2,1.4-0.3
			c0.5-0.1,0.9-0.1,1.3-0.1c0.3,0,0.7,0,1.2,0c0.5,0,0.9,0.1,1.4,0.1c0.5,0.1,1,0.2,1.5,0.3c0.5,0.1,0.9,0.3,1.3,0.6
			c0.4,0.2,0.7,0.5,0.9,0.9c0.2,0.3,0.4,0.7,0.4,1.2c0,0.4,0,0.7-0.2,1c-0.1,0.3-0.3,0.5-0.5,0.7c-0.2,0.2-0.5,0.4-0.8,0.5
			c-0.3,0.1-0.6,0.2-1,0.2c-0.4,0-0.9-0.1-1.4-0.2c-0.5-0.2-1-0.4-1.5-0.7c-0.5-0.3-0.9-0.6-1.3-1c-0.4-0.4-0.7-0.8-0.9-1.1
			c-0.2,0-0.5,0.1-0.9,0.2c-0.4,0.1-0.8,0.2-1.1,0.3c-0.4,0.1-0.7,0.3-1,0.5c-0.3,0.2-0.4,0.4-0.4,0.6c0,0.1,0,0.2,0.1,0.3
			c0.1,0.1,0.2,0.2,0.3,0.2c0.1,0.1,0.2,0.1,0.4,0.2c0.1,0,0.3,0.1,0.4,0.1l0.2,0.1c0,0,0.1,0,0.1,0c0,0,0,0,0.1,0
			c0.1,0.1,0.3,0.1,0.4,0.2c0.1,0.1,0.2,0.2,0.3,0.3l0,0c0,0,0.1,0.1,0.1,0.1c0,0,0,0.1,0,0.1c0,0.1,0,0.3-0.1,0.4
			c-0.1,0.1-0.2,0.3-0.3,0.4c-0.1,0.1-0.2,0.2-0.4,0.3C131.6,89.1,131.4,89.1,131.3,89.1z M138.5,85.5c0.1,0,0.2,0,0.3,0
			c0.1,0,0.2,0,0.3-0.1c-0.2-0.1-0.4-0.3-0.7-0.4c-0.3-0.1-0.5-0.2-0.8-0.3c-0.3-0.1-0.6-0.1-0.9-0.2c-0.3,0-0.6-0.1-0.8-0.1
			c0.4,0.3,0.8,0.5,1.2,0.7C137.6,85.5,138.1,85.6,138.5,85.5z"/>
		<path class="st2" d="M130,89.7c0.1,0,0.2,0,0.3,0.1c0.1,0.1,0.1,0.2,0.1,0.3c0,0.1,0,0.2,0,0.4c0,0.1,0,0.2,0,0.3
			c0,0.1,0,0.2,0,0.4c0,0.1,0,0.3-0.1,0.4c0,0.1-0.1,0.2-0.2,0.3c-0.1,0.1-0.2,0.1-0.3,0.1c-0.1,0-0.2,0-0.4,0c-0.2,0-0.4,0-0.6,0
			c-0.2,0-0.4,0-0.6,0s-0.3,0-0.3,0c-0.1-0.1-0.2-0.2-0.2-0.4c0-0.1,0-0.3,0-0.4c0-0.3,0.1-0.6,0.1-0.8c0-0.2,0.1-0.3,0.2-0.4
			c0.1-0.1,0.2-0.1,0.4-0.1c0.2,0,0.4,0,0.7-0.1c0.1,0,0.3-0.1,0.4-0.1C129.7,89.7,129.8,89.7,130,89.7z"/>
	</g>
	<g>
		<path class="st3" d="M78,153.3c37.5,0,65-24.3,73.3-57.8c-6.3,6.6-46.1-0.1-46.1-0.1l-36.5,25.9c1.2,0.9,2,18,0.1,31.6
			C73.2,153.7,73.3,153.3,78,153.3z"/>
	</g>
	<g>
		<path class="st3" d="M38.5,66.4C24.2,74.7,11.7,75,11.7,75s2.6,14.2,21,14.2s21,2.8,21,2.8s16.5,22.6,15.1,26.6
			c-0.4,2.2,29.1,0.2,36.2-14s2.2-7.5,2.2-7.5S86.5,82.1,90,47.9C92.2,26.3,86.3,29,86.3,29s-4.5,18.9-10.2,19.7
			c-5.7,0.8-6.9-39.1-8.3-37C67.8,11.7,65.6,50.7,38.5,66.4z"/>
	</g>
	<g>
		<path d="M15,74.6c0,0-0.2,10.3-2.3,5.4c-2-4.9-2-4.9-2-4.9L15,74.6z"/>
	</g>
	<g class="st4">
		<path class="st5" d="M68.7,15.7c0,0-2.2,21.6,0,28c2.2,6.5,7.3,4.9,7.3,4.9L68.7,15.7z"/>
	</g>
	<g class="st4">
		<path class="st5" d="M86.3,25.1c0,0,0,14.9,0,23.8s2.2,21.8,3.7,27c4.3,14.6,16.7,23.2,14.9,17.1S89.6,25.5,86.3,25.1z"/>
	</g>
	<g class="st4">
		<path class="st6" d="M66.2,116.7c0,0,19.8-2.8,38.5-22.9l4.8,3.5c-17.9,22.1-40.9,26.2-40.9,26.2
			C66.2,116.7,66.2,116.7,66.2,116.7z"/>
	</g>
	<g class="st4">
		<path class="st6" d="M44.2,62.5c5.5-3.5,9.2-9.7,9.9-10.6c0.7-1,18.1,11.5,23,11.8c5.5,0.4,15.3,3,15.3,3s-31.7,6.7-37.1,5.2
			s-14-7.2-14-7.2L44.2,62.5z"/>
	</g>
	<g>
		<path class="st17" d="M44.2,61.3c5.5-3.5,9.2-9.7,9.9-10.6c0.7-1,18.1,11.5,23,11.8c5.5,0.4,15.3,3,15.3,3s-31.7,6.7-37.1,5.2
			s-14-7.2-14-7.2L44.2,61.3z"/>
	</g>
	<g>
		<circle cx="50.7" cy="59.1" r="1.2"/>
	</g>
	<g>
		<ellipse transform="matrix(0.6682 -0.744 0.744 0.6682 -27.1498 65.9012)" cx="60.3" cy="63.4" rx="2.8" ry="2.8"/>
	</g>
	<g>
		<circle class="st1" cx="58.9" cy="62.9" r="0.6"/>
	</g>
	<g>
		<circle class="st1" cx="50.4" cy="58.8" r="0.3"/>
	</g>
	<g>
		<path class="st17" d="M90.8,65.4c1.9-6.6,7.6-16.9,8-11.3S90.8,65.4,90.8,65.4z"/>
	</g>
	<g>
		<path class="st17" d="M96.9,70.3c-4.3,2.9-6.1-4.9-6.1-4.9S98.6,69.1,96.9,70.3z"/>
	</g>
	<g>
		<path class="st17" d="M66.2,114.6c0,0,19.8-2.8,38.5-22.9l4.8,3.5c-17.9,22.1-40.9,26.2-40.9,26.2
			C66.2,114.6,66.2,114.6,66.2,114.6z"/>
	</g>
	<g class="st4">
		<path class="st5" d="M13.8,80c0,0,18.9,9.3,37.7,4.8c3.9-0.9,24.6,32.2,26,34.5c6.3,10.7,0.6,34.1,0.6,34.1l-9.2-0.4L13.8,80z"/>
	</g>
	<g>
		<polygon class="st1" points="29,87.2 29,89.7 33.1,87.5 36,91.1 36,86.9 		"/>
	</g>
	<g class="st14">
		<path class="st0" d="M31.6,87.5c-3.1,0-6.3-0.3-7.4-0.4l0-0.5c5.5,0.5,13.3,0.6,13.5-0.7l0.5,0.1C38.1,87.2,35,87.5,31.6,87.5z"/>
	</g>
	<g>
		<path class="st0" d="M78,154.3c-42.1,0-76.3-34.2-76.3-76.3S35.9,1.7,78,1.7s76.3,34.2,76.3,76.3S120.1,154.3,78,154.3z M78,3.7
			C37,3.7,3.7,37,3.7,78S37,152.3,78,152.3S152.3,119,152.3,78S119,3.7,78,3.7z"/>
	</g>
</g>
<g id="Layer_2">
</g>
<g id="Layer_3">
</g>
<g id="Layer_4">
</g>
<g id="Layer_5">
</g>
<g id="Layer_6">
</g>
</svg>
